<svg id="visual" viewBox="0 0 960 540" width="960" height="540" xmlns="http://www.w3.org/2000/svg" xmlns:xlink="http://www.w3.org/1999/xlink" version="1.1"><rect x="0" y="0" width="960" height="540" fill="#ffffff"></rect><defs><linearGradient id="grad1_0" x1="43.8%" y1="100%" x2="100%" y2="0%"><stop offset="14.444444444444446%" stop-color="#ffffff" stop-opacity="1"></stop><stop offset="85.55555555555554%" stop-color="#ffffff" stop-opacity="1"></stop></linearGradient></defs><defs><linearGradient id="grad2_0" x1="0%" y1="100%" x2="56.3%" y2="0%"><stop offset="14.444444444444446%" stop-color="#ffffff" stop-opacity="1"></stop><stop offset="85.55555555555554%" stop-color="#ffffff" stop-opacity="1"></stop></linearGradient></defs><g transform="translate(960, 540)"><path d="M-351 0C-351.9 -50.7 -352.9 -101.5 -324.3 -134.3C-295.7 -167.2 -237.5 -182.2 -197.3 -197.3C-157.1 -212.4 -134.7 -227.5 -104.9 -253.1C-75 -278.8 -37.5 -314.9 0 -351L0 0Z" fill="#4FACF7"></path></g><g transform="translate(0, 0)"><path d="M351 0C347.5 46.9 343.9 93.8 324.3 134.3C304.6 174.8 268.9 209 231.9 231.9C195 254.9 156.7 266.6 117.9 284.6C79 302.5 39.5 326.8 0 351L0 0Z" fill="#4FACF7"></path></g></svg>